<svg xmlns="http://www.w3.org/2000/svg" aria-hidden="true" style="position:absolute;width:0;height:0;overflow:hidden"><defs><symbol id="icon-back" viewBox="0 0 32 32"><path d="M23.808 32c3.554-6.439 4.153-16.26-9.808-15.932V24L2 12 14 0v7.762C30.718 7.326 32.58 22.519 23.808 32z"/></symbol><symbol id="icon-fullscreen" viewBox="0 0 14 14"><path fill="#fff" fill-rule="evenodd" d="M2 9H0v5h5v-2H2V9ZM0 5h2V2h3V0H0v5Zm12 7H9v2h5V9h-2v3ZM9 0v2h3v3h2V0H9Z"/></symbol><symbol id="icon-exit-fullscreen" viewBox="0 0 15 15"><path fill="#fff" fill-rule="evenodd" d="M5.5 2a.5.5 0 0 1 .5.5v3a.5.5 0 0 1-.5.5h-3a.5.5 0 0 1 0-1H5V2.5a.5.5 0 0 1 .5-.5Zm4 0a.5.5 0 0 1 .5.5V5h2.5a.5.5 0 0 1 0 1h-3a.5.5 0 0 1-.5-.5v-3a.5.5 0 0 1 .5-.5ZM2 9.5a.5.5 0 0 1 .5-.5h3a.5.5 0 0 1 .5.5v3a.5.5 0 0 1-1 0V10H2.5a.5.5 0 0 1-.5-.5Zm7 0a.5.5 0 0 1 .5-.5h3a.5.5 0 0 1 0 1H10v2.5a.5.5 0 0 1-1 0v-3Z" clip-rule="evenodd"/></symbol></defs></svg>